<?xml version="1.0" encoding="UTF-8" standalone="no"?>
<!DOCTYPE svg PUBLIC "-//W3C//DTD SVG 1.1//EN" "http://www.w3.org/Graphics/SVG/1.1/DTD/svg11.dtd">
<svg width="100%" height="100%" viewBox="0 0 647 647" version="1.1" xmlns="http://www.w3.org/2000/svg" xmlns:xlink="http://www.w3.org/1999/xlink" xml:space="preserve" xmlns:serif="http://www.serif.com/" style="fill-rule:evenodd;clip-rule:evenodd;stroke-linejoin:round;stroke-miterlimit:2;">
    <circle cx="323.5" cy="323.5" r="323.5" style="fill:#092936;"/>
    <path d="M128.301,490.813L128.301,156.187L394.956,156.187C420.228,156.187 440.924,158.583 457.045,163.376C473.312,168.024 485.294,176.375 492.991,188.43C500.834,200.339 504.756,217.259 504.756,239.19C504.756,258.942 500.181,275.281 491.031,288.207C481.881,301.134 467.865,308.25 448.985,309.557C473.675,312.026 491.466,320.886 502.359,336.136C513.252,351.24 518.698,370.266 518.698,393.214C518.698,413.111 516.374,429.45 511.727,442.231C507.225,455.012 499.6,464.961 488.852,472.077C478.105,479.049 463.508,483.914 445.063,486.674C426.763,489.433 403.888,490.813 376.439,490.813L128.301,490.813ZM170.13,295.615L365.11,295.615C387.622,295.615 406.067,294.816 420.445,293.218C434.824,291.62 445.499,286.9 452.47,279.057C459.442,271.215 462.927,257.926 462.927,239.19C462.927,224.521 460.821,213.773 456.609,206.947C452.543,200.121 445.571,195.764 435.695,193.876C425.819,191.988 412.24,191.044 394.956,191.044L170.13,191.044L170.13,295.615ZM170.13,455.956L376.439,455.956C396.336,455.956 412.748,455.448 425.674,454.431C438.745,453.414 448.985,450.945 456.392,447.024C463.944,443.103 469.245,436.93 472.295,428.506C475.345,419.937 476.87,408.173 476.87,393.214C476.87,377.819 473.965,365.837 468.156,357.268C462.492,348.699 454.504,342.526 444.192,338.75C434.025,334.974 422.188,332.65 408.681,331.779C395.174,330.907 380.651,330.471 365.11,330.471L170.13,330.471L170.13,455.956Z" style="fill:#c6ecff;fill-rule:nonzero;"/>
</svg>
