<?xml version="1.0" encoding="UTF-8" standalone="no"?>
<!DOCTYPE svg PUBLIC "-//W3C//DTD SVG 1.1//EN" "http://www.w3.org/Graphics/SVG/1.1/DTD/svg11.dtd">
<svg width="100%" height="100%" viewBox="0 0 1362 605" version="1.1" xmlns="http://www.w3.org/2000/svg" xmlns:xlink="http://www.w3.org/1999/xlink" xml:space="preserve" xmlns:serif="http://www.serif.com/" style="fill-rule:evenodd;clip-rule:evenodd;stroke-linejoin:round;stroke-miterlimit:2;">
    <g>
        <path d="M0,604.141L0,319.141L38,319.141L54.4,373.161L54.4,604.141L0,604.141ZM194.4,604.141C194.4,604.141 158.254,603.841 116.8,519.141C65.558,414.441 27.6,383.961 27.6,383.961L38,319.141C38,319.141 70.198,318.948 116.8,404.141C170.922,503.081 204.8,534.761 204.8,534.761L194.4,604.141ZM194.4,604.141L178.8,547.161L178.8,319.141L233.6,319.141L233.6,604.141L194.4,604.141Z" style="fill-rule:nonzero;"/>
        <path d="M367.6,603.961C350.533,603.961 335.333,600.361 322,593.161C308.933,585.961 298.667,575.961 291.2,563.161C283.733,550.361 280,535.561 280,518.761L280,404.141L332.8,404.141L332.8,517.561C332.8,525.561 334.133,532.495 336.8,538.361C339.467,543.961 343.467,548.228 348.8,551.161C354.133,554.095 360.4,555.561 367.6,555.561C378.533,555.561 387.067,552.228 393.2,545.561C399.333,538.895 402.4,529.561 402.4,517.561L402.4,404.141L454.8,404.141L454.8,518.761C454.8,535.828 451.067,550.761 443.6,563.561C436.4,576.361 426.133,586.361 412.8,593.561C399.733,600.495 384.667,603.961 367.6,603.961Z" style="fill-rule:nonzero;"/>
        <path d="M524.8,603.961L524.8,319.141L577.2,319.141L577.2,603.961L524.8,603.961ZM480.6,451.419L480.6,404.141L623.4,404.141L623.4,451.419L480.6,451.419Z" style="fill-rule:nonzero;"/>
        <path d="M652,603.961L652,404.141L704.4,404.141L704.4,603.961L652,603.961ZM704.4,490.541L684,476.941C686.4,453.208 693.333,438.541 704.8,424.941C716.267,411.074 732.8,404.141 754.4,404.141C763.73,404.141 772.13,405.741 779.6,408.941C787.07,411.874 793.87,412.808 800,419.741L767.2,457.341C764.27,454.141 760.67,451.741 756.4,450.141C752.4,448.541 747.73,447.741 742.4,447.741C731.2,447.741 722,451.341 714.8,458.541C707.867,465.474 704.4,476.141 704.4,490.541Z" style="fill-rule:nonzero;"/>
        <rect x="818.4" y="461.641" width="52.8" height="142.32"/>
        <path d="M1127.28,412.141C1127.28,412.141 1135.21,369.868 1146.1,360.057C1156.34,350.835 1171.91,351.238 1181.66,360.685C1181.84,360.855 1172.98,362.383 1166.43,367.666C1163.07,370.378 1158.83,374.43 1155.36,379.224C1149.12,387.833 1144.33,397.61 1144.33,397.61C1144.33,397.61 1150.44,388.315 1157.36,380.377C1161.01,376.191 1164.85,372.745 1168.21,370.449C1175.8,365.268 1184.03,363.308 1184.21,363.542C1192.43,374.22 1191.16,389.617 1180.99,398.786C1170.09,408.597 1127.28,412.141 1127.28,412.141Z" style="fill:#4a7f45;"/>
        <path d="M923.8,401.141L923.8,319.141L1111.8,319.141L1111.8,366.761L978.3,366.761L978.3,408.291C972.06,406.66 960.17,404.029 949.09,402.738C935.88,401.198 923.8,401.141 923.8,401.141ZM978.3,457.511L978.3,603.961L923.8,603.961L923.8,450.291C950.8,450.411 964.55,453.976 978.3,457.511Z"/>
        <path d="M1032.8,461.551C978.8,461.552 977.8,447.532 923.8,447.291C883.36,447.111 844.8,454.141 844.8,454.141C851.31,447.113 884.18,404.141 923.8,404.141C978.07,404.141 978.53,418.441 1032.8,418.441C1072.16,418.441 1111.8,411.641 1111.8,411.641C1105.31,418.546 1072.1,461.551 1032.8,461.551Z" style="fill-rule:nonzero;"/>
        <rect x="1136.8" y="461.641" width="52.8" height="142.32"/>
        <path d="M1264.4,603.961L1264.4,319.141L1316.8,319.141L1316.8,603.961L1264.4,603.961ZM1219.2,451.419L1219.2,404.141L1362,404.141L1362,451.419L1219.2,451.419Z" style="fill-rule:nonzero;"/>
    </g>
    <g>
        <path d="M680.601,307.141C680.601,307.141 506.48,228.958 475.604,171.814C446.708,118.335 464.187,52.138 514.224,19.52C515.095,18.952 506.06,68.756 548.783,124.69C584.065,170.882 668.055,234.983 668.055,234.983C668.055,234.983 598.285,162.837 564.118,112.848C533.47,68.008 528.37,11.629 529.133,11.277C584.262,-14.175 650.496,7.35 679.757,61.506C710.633,118.65 680.601,307.141 680.601,307.141Z" style="fill:#65aa5e;"/>
        <path d="M680.601,307.141C680.601,307.141 651.214,117.932 682.394,60.598C711.702,6.706 777.64,-14.678 832.59,10.519C833.58,10.973 798.66,30.517 779.02,62.398C768.94,78.762 757.15,102.055 749.67,127.331C736.25,172.722 730.64,220.864 730.64,220.864C730.64,220.864 742.5,172.791 759.77,129.213C768.88,106.228 779.89,86.069 790.61,71.444C814.79,38.443 846.43,18.017 847.53,18.73C897.87,51.367 915.38,117.879 886.25,171.46C855.07,228.793 680.601,307.141 680.601,307.141Z" style="fill:#4a7f45;"/>
    </g>
</svg>
