<?xml version="1.0" encoding="UTF-8" standalone="no"?>
<!DOCTYPE svg PUBLIC "-//W3C//DTD SVG 1.1//EN" "http://www.w3.org/Graphics/SVG/1.1/DTD/svg11.dtd">
<svg width="100%" height="100%" viewBox="0 0 1920 1080" version="1.1" xmlns="http://www.w3.org/2000/svg" xmlns:xlink="http://www.w3.org/1999/xlink" xml:space="preserve" xmlns:serif="http://www.serif.com/" style="fill-rule:evenodd;clip-rule:evenodd;stroke-linejoin:round;stroke-miterlimit:2;">
    <g>
        <path d="M279,808L279,523L317,523L333.4,577.02L333.4,808L279,808ZM473.4,808C473.4,808 437.254,807.7 395.8,723C344.558,618.3 306.6,587.82 306.6,587.82L317,523C317,523 349.198,522.807 395.8,608C449.922,706.94 483.8,738.62 483.8,738.62L473.4,808ZM473.4,808L457.8,751.02L457.8,523L512.6,523L512.6,808L473.4,808Z" style="fill-rule:nonzero;"/>
        <path d="M646.6,807.82C629.533,807.82 614.333,804.22 601,797.02C587.933,789.82 577.667,779.82 570.2,767.02C562.733,754.22 559,739.42 559,722.62L559,608L611.8,608L611.8,721.42C611.8,729.42 613.133,736.354 615.8,742.22C618.467,747.82 622.467,752.087 627.8,755.02C633.133,757.954 639.4,759.42 646.6,759.42C657.533,759.42 666.067,756.087 672.2,749.42C678.333,742.754 681.4,733.42 681.4,721.42L681.4,608L733.8,608L733.8,722.62C733.8,739.687 730.067,754.62 722.6,767.42C715.4,780.22 705.133,790.22 691.8,797.42C678.733,804.354 663.667,807.82 646.6,807.82Z" style="fill-rule:nonzero;"/>
        <path d="M803.8,807.82L803.8,523L856.2,523L856.2,807.82L803.8,807.82ZM759.6,655.278L759.6,608L902.4,608L902.4,655.278L759.6,655.278Z" style="fill-rule:nonzero;"/>
        <path d="M931,807.82L931,608L983.4,608L983.4,807.82L931,807.82ZM983.4,694.4L963,680.8C965.4,657.067 972.333,642.4 983.8,628.8C995.267,614.933 1011.8,608 1033.4,608C1042.73,608 1051.13,609.6 1058.6,612.8C1066.07,615.733 1072.87,616.667 1079,623.6L1046.2,661.2C1043.27,658 1039.67,655.6 1035.4,654C1031.4,652.4 1026.73,651.6 1021.4,651.6C1010.2,651.6 1001,655.2 993.8,662.4C986.867,669.333 983.4,680 983.4,694.4Z" style="fill-rule:nonzero;"/>
        <rect x="1097.4" y="665.5" width="52.8" height="142.32" style="fill-rule:nonzero;"/>
        <path d="M1406.28,616C1406.28,616 1414.21,573.727 1425.1,563.916C1435.34,554.694 1450.91,555.097 1460.66,564.544C1460.84,564.714 1451.98,566.242 1445.43,571.525C1442.07,574.237 1437.83,578.289 1434.36,583.083C1428.12,591.692 1423.33,601.469 1423.33,601.469C1423.33,601.469 1429.44,592.174 1436.36,584.236C1440.01,580.05 1443.85,576.604 1447.21,574.308C1454.8,569.127 1463.03,567.167 1463.21,567.401C1471.43,578.079 1470.16,593.476 1459.99,602.645C1449.09,612.456 1406.28,616 1406.28,616Z" style="fill:#4a7f45;"/>
        <path d="M1202.8,605L1202.8,523L1390.8,523L1390.8,570.62L1257.3,570.62L1257.3,612.15C1251.06,610.519 1239.17,607.888 1228.09,606.597C1214.88,605.057 1202.8,605 1202.8,605ZM1257.3,661.37L1257.3,807.82L1202.8,807.82L1202.8,654.15C1229.8,654.27 1243.55,657.835 1257.3,661.37Z"/>
        <path d="M1311.8,665.41C1257.8,665.411 1256.8,651.391 1202.8,651.15C1162.36,650.97 1123.8,658 1123.8,658C1130.31,650.972 1163.18,608 1202.8,608C1257.07,608 1257.53,622.3 1311.8,622.3C1351.16,622.3 1390.8,615.5 1390.8,615.5C1384.31,622.405 1351.1,665.41 1311.8,665.41Z" style="fill-rule:nonzero;"/>
        <rect x="1415.8" y="665.5" width="52.8" height="142.32" style="fill-rule:nonzero;"/>
        <path d="M1543.4,807.82L1543.4,523L1595.8,523L1595.8,807.82L1543.4,807.82ZM1498.2,655.278L1498.2,608L1641,608L1641,655.278L1498.2,655.278Z" style="fill-rule:nonzero;"/>
    </g>
    <g>
        <path d="M959.601,511C959.601,511 785.48,432.817 754.604,375.673C725.708,322.194 743.187,255.997 793.224,223.379C794.095,222.811 785.06,272.615 827.783,328.549C863.065,374.741 947.055,438.842 947.055,438.842C947.055,438.842 877.285,366.696 843.118,316.707C812.47,271.867 807.37,215.488 808.133,215.136C863.262,189.684 929.496,211.209 958.757,265.365C989.633,322.509 959.601,511 959.601,511Z" style="fill:#65aa5e;"/>
        <path d="M959.601,511C959.601,511 930.214,321.791 961.394,264.457C990.702,210.565 1056.64,189.181 1111.59,214.378C1112.58,214.832 1077.66,234.376 1058.02,266.257C1047.94,282.621 1036.15,305.914 1028.67,331.19C1015.25,376.581 1009.64,424.723 1009.64,424.723C1009.64,424.723 1021.5,376.65 1038.77,333.072C1047.88,310.087 1058.89,289.928 1069.61,275.303C1093.79,242.302 1125.43,221.876 1126.53,222.589C1176.87,255.226 1194.38,321.738 1165.25,375.319C1134.07,432.652 959.601,511 959.601,511Z" style="fill:#4a7f45;"/>
    </g>
</svg>
