<?xml version="1.0" encoding="UTF-8" standalone="no"?>
<!DOCTYPE svg PUBLIC "-//W3C//DTD SVG 1.1//EN" "http://www.w3.org/Graphics/SVG/1.1/DTD/svg11.dtd">
<svg width="100%" height="100%" viewBox="0 0 147 147" version="1.1" xmlns="http://www.w3.org/2000/svg" xmlns:xlink="http://www.w3.org/1999/xlink" xml:space="preserve" xmlns:serif="http://www.serif.com/" style="fill-rule:evenodd;clip-rule:evenodd;stroke-linecap:round;stroke-miterlimit:1.5;">
    <g opacity="0.1">
        <g>
            <path d="M73.093,23.083L78.655,34.206L67.532,34.206L73.093,23.083Z"/>
            <rect x="67.532" y="34.206" width="11.123" height="38.888"/>
        </g>
        <g>
            <path d="M104.733,91.361L94.915,92.114L100.477,82.481L104.733,91.361Z"/>
            <path d="M94.915,92.114L70.313,77.91L75.874,68.277L100.477,82.481L94.915,92.114Z"/>
        </g>
        <path d="M67.532,73.093L70.313,77.91L73.093,73.093L67.532,73.093Z"/>
    </g>
    <circle cx="73.093" cy="73.093" r="62.276" style="fill:none;stroke:#000;stroke-opacity:0.1;stroke-width:12px;"/>
    <g>
        <path d="M121.581,112.159C110.161,126.311 92.677,135.369 73.093,135.369C38.723,135.369 10.818,107.464 10.818,73.093C10.818,38.723 38.723,10.818 73.093,10.818C88.839,10.818 103.227,16.674 114.198,26.324" style="fill:none;stroke:#000;stroke-width:12px;stroke-linecap:butt;"/>
        <path d="M127.913,43.182L104.488,32.431L122.459,17.992L127.913,43.182Z"/>
    </g>
</svg>
